{
  "asset": {
    "generator": "Khronos glTF Blender I/O v4.4.56",
    "version": "2.0"
  },
  "extensionsUsed": [
    "KHR_texture_transform",
    "KHR_materials_specular",
    "KHR_materials_sheen"
  ],
  "extensionsRequired": [
    "KHR_texture_transform"
  ],
  "scene": 0,
  "scenes": [
    {
      "name": "Scene",
      "nodes": [
        0
      ]
    }
  ],
  "nodes": [
    {
      "mesh": 0,
      "name": "sphere_gltf"
    }
  ],
  "materials": [
    {
      "doubleSided": true,
      "extensions": {
        "KHR_materials_specular": {
          "specularTexture": {
            "extensions": {
              "KHR_texture_transform": {
                "scale": [
                  0.9997597932815552,
                  1
                ]
              }
            },
            "index": 0
          }
        },
        "KHR_materials_sheen": {
          "sheenColorFactor": [
            1,
            1,
            1
          ],
          "sheenRoughnessFactor": 0.5
        }
      },
      "name": "hessian_380",
      "normalTexture": {
        "extensions": {
          "KHR_texture_transform": {
            "scale": [
              0.9997597932815552,
              1
            ]
          }
        },
        "index": 1
      },
      "pbrMetallicRoughness": {
        "baseColorTexture": {
          "extensions": {
            "KHR_texture_transform": {
              "scale": [
                0.9997597932815552,
                1
              ]
            }
          },
          "index": 2
        },
        "metallicRoughnessTexture": {
          "extensions": {
            "KHR_texture_transform": {
              "scale": [
                0.9997597932815552,
                1
              ]
            }
          },
          "index": 3
        }
      }
    }
  ],
  "meshes": [
    {
      "name": "Sphere.001",
      "primitives": [
        {
          "attributes": {
            "POSITION": 0,
            "NORMAL": 1,
            "TEXCOORD_0": 2
          },
          "indices": 3,
          "material": 0
        }
      ]
    }
  ],
  "textures": [
    {
      "sampler": 0,
      "source": 0
    },
    {
      "sampler": 0,
      "source": 1
    },
    {
      "sampler": 0,
      "source": 2
    },
    {
      "sampler": 0,
      "source": 3
    }
  ],
  "images": [
    {
      "mimeType": "image/jpeg",
      "name": "hessian_380_spec_ior",
      "uri": "textures/hessian_380_spec_ior_4k.jpg"
    },
    {
      "mimeType": "image/jpeg",
      "name": "hessian_380_nor_gl",
      "uri": "textures/hessian_380_nor_gl_4k.jpg"
    },
    {
      "mimeType": "image/jpeg",
      "name": "hessian_380_diff",
      "uri": "textures/hessian_380_diff_4k.jpg"
    },
    {
      "mimeType": "image/jpeg",
      "name": "hessian_380_metal-hessian_380_rough",
      "uri": "textures/hessian_380_arm_4k.jpg"
    }
  ],
  "accessors": [
    {
      "bufferView": 0,
      "componentType": 5126,
      "count": 53951,
      "max": [
        0.1369406133890152,
        0.13694420456886292,
        0.13697054982185364
      ],
      "min": [
        -0.13694067299365997,
        -0.13693402707576752,
        -0.13694831728935242
      ],
      "type": "VEC3"
    },
    {
      "bufferView": 1,
      "componentType": 5126,
      "count": 53951,
      "type": "VEC3"
    },
    {
      "bufferView": 2,
      "componentType": 5126,
      "count": 53951,
      "type": "VEC2"
    },
    {
      "bufferView": 3,
      "componentType": 5123,
      "count": 322170,
      "type": "SCALAR"
    }
  ],
  "bufferViews": [
    {
      "buffer": 0,
      "byteLength": 647412,
      "byteOffset": 0,
      "target": 34962
    },
    {
      "buffer": 0,
      "byteLength": 647412,
      "byteOffset": 647412,
      "target": 34962
    },
    {
      "buffer": 0,
      "byteLength": 431608,
      "byteOffset": 1294824,
      "target": 34962
    },
    {
      "buffer": 0,
      "byteLength": 644340,
      "byteOffset": 1726432,
      "target": 34963
    }
  ],
  "samplers": [
    {
      "magFilter": 9729,
      "minFilter": 9987
    }
  ],
  "buffers": [
    {
      "byteLength": 2370772,
      "uri": "hessian_380.bin"
    }
  ]
}